<svg width="1148" height="2864" viewBox="0 0 1148 2864" fill="none" xmlns="http://www.w3.org/2000/svg">
<path d="M-1 8H1089.9C1117.51 8 1139.9 30.3858 1139.9 58V528.6C1139.9 556.214 1117.51 578.6 1089.9 578.6H294.847C267.233 578.6 244.847 600.986 244.847 628.6V1097.2C244.847 1124.81 267.233 1147.2 294.847 1147.2H1089.9C1117.51 1147.2 1139.9 1169.59 1139.9 1197.2V1666.86C1139.9 1694.45 1117.55 1716.83 1089.95 1716.86L294.893 1717.74C267.301 1717.78 244.949 1740.15 244.949 1767.74V2236.4C244.949 2264.01 267.335 2286.4 294.949 2286.4H1090C1117.61 2286.4 1140 2308.79 1140 2336.4V2806C1140 2833.61 1117.61 2856 1090 2856H-0.028109" stroke="#334675" stroke-opacity="0.3" stroke-width="15"/>
</svg>
