<svg width="991" height="1737" viewBox="0 0 991 1737" fill="none" xmlns="http://www.w3.org/2000/svg">
<path d="M0.374465 5H955.577C972.326 5 985.909 18.5769 985.909 35.3248V320.682C985.909 337.429 972.326 351.006 955.577 351.006H208.359C191.607 351.006 178.027 364.584 178.027 381.331V665.475C178.027 682.221 191.607 695.8 208.359 695.8H955.577C972.326 695.8 985.909 709.379 985.909 726.125V1010.9C985.909 1027.64 972.345 1041.21 955.602 1041.22L208.428 1041.78C191.685 1041.79 178.119 1055.37 178.119 1072.11V1356.28C178.119 1373.02 191.699 1386.6 208.451 1386.6H955.668C972.417 1386.6 986 1400.18 986 1416.92V1701.68C986 1718.42 972.417 1732 955.668 1732H-43" stroke="#334675" stroke-opacity="0.3" stroke-width="10"/>
</svg>
