<svg width="1035" height="2863" viewBox="0 0 1035 2863" fill="none" xmlns="http://www.w3.org/2000/svg">
<path d="M-26.1327 8H977.402C1005.02 8 1027.4 30.3858 1027.4 58V528.5C1027.4 556.114 1005.02 578.5 977.402 578.5H213.778C186.163 578.5 163.778 600.886 163.778 628.5V1097C163.778 1124.61 186.163 1147 213.778 1147H977.402C1005.02 1147 1027.4 1169.39 1027.4 1197V1666.56C1027.4 1694.15 1005.05 1716.53 977.46 1716.56L213.818 1717.44C186.226 1717.47 163.876 1739.85 163.876 1767.44V2236C163.876 2263.61 186.261 2286 213.876 2286H977.5C1005.11 2286 1027.5 2308.39 1027.5 2336V2805.5C1027.5 2833.11 1005.11 2855.5 977.5 2855.5H-72.5" stroke="#334675" stroke-opacity="0.3" stroke-width="15"/>
</svg>
